<svg version="1" xmlns="http://www.w3.org/2000/svg" width="188" height="188" viewBox="0 0 141.000000 141.000000"><path d="M20 74.5V131h21.5c20.5 0 21.5-.1 21.5-1.9 0-3.7 1.2-5.1 4.1-5.1 2.6 0 2.9-.4 2.9-3 0-2.5.4-3 2.5-3s2.5-.5 2.5-3c0-2.8.2-3 4-3h4v-4c0-3.8.2-4 3-4 2.5 0 3-.4 3-2.5s-.5-2.5-3-2.5c-2.7 0-3-.3-3-3s-.3-3-2.9-3-3-.4-3.3-3.3c-.2-2.4-.8-3.2-2.3-3.2-1.5 0-2.1-.8-2.3-3.3-.3-3.1-.4-3.2-5.3-3.2-4.9 0-4.9 0-4.9 3.3 0 2.8-.4 3.3-2.2 3.3-1.8-.1-2.2.5-2.2 2.9-.1 2.6-.5 3-3.3 3.3-2.9.3-3.3.7-3.3 3.3 0 2.6-.3 2.9-3 2.9-2.8 0-3 .3-3 3.5 0 3.3-.2 3.5-3.2 3.3-3.1-.3-3.3-.1-3.3 2.7 0 2.7-.4 3-3.2 3.3-2.9.3-3.3.7-3.3 3.3 0 2.6-.3 2.9-3 2.9h-3V23h63v26h25.5l.2 12.2.2 12.3 3.1.3 3 .3V43h-3.5c-3.2 0-3.5-.2-3.5-3 0-2.5-.4-3-2.4-3-1.9 0-2.5.6-2.8 2.7-.3 2.7-.6 2.8-6.4 3.1l-6.2.3-.7-6c-.8-6.9-.3-8.1 3.1-8.1 1.9 0 2.4-.5 2.4-2.5 0-2.1-.5-2.5-3-2.5-2.7 0-3-.3-3-3v-3H20v56.5z"/><path d="M102 33c0 2.7.3 3 3 3s3-.3 3-3-.3-3-3-3-3 .3-3 3zM114.7 104.3c-.3 2.4-.4 6.4-.2 9l.4 4.7h-3.3c-3.1 0-3.3-.2-3-2.8.3-2.6.1-2.8-3.1-2.4-2.9.3-3.5.8-3.5 2.8 0 2-.5 2.4-3 2.4-2.8 0-3 .3-3 3.5s-.2 3.5-3 3.5c-2.7 0-3 .3-3 3v3h31v-31h-2.9c-2.6 0-2.9.4-3.4 4.3z"/></svg>